# xmcd
#
# Track frame offsets:
# 150
# 15762
# 31397
# 46822
# 61335
# 78262
# 95727
# 109975
# 123965
# 141925
# 158415
# 175982
# 186820
# 203284
# 217025
# 232565
#
# Disc length: 3292 seconds
#
#
# Revision: 2
# Processed by: cddbd v1.5.2PL0 Copyright (c) Steve Scherf et al.
# Submitted via: FreeRIP 2.951 
#
DISCID=c10cda10
DTITLE=Varios - 35 Anos de Música Sertaneja
DYEAR=1995
DGENRE=Caipira
TTITLE0=Lembrança
TTITLE1=Chalana
TTITLE2=Mourão da Porteira
TTITLE3=Bom Jesus de Pirapora
TTITLE4=Chitãozinho e Chororó
TTITLE5=Tristeza do Jeca
TTITLE6=Seresteiro da Lua
TTITLE7=Cavalo Preto
TTITLE8=Piracicaba
TTITLE9=João de Barro
TTITLE10=Índia
TTITLE11=Cachoeira de Lágrimas
TTITLE12=Amor Distante
TTITLE13=Empreitada Perigosa
TTITLE14=Cabloca Tereza
TTITLE15=O Menino da Porteira
EXTD=
EXTT0=Zé Fortuna e Pitangueira
EXTT1=Irmãs Castro
EXTT2=Raul Torres e Florêncio
EXTT3=Serrinha e Caboclinho
EXTT4=Serrinha e Zé do Rancho
EXTT5=Tonico e Tinoco
EXTT6=Pedro Bento e Zé da Estrada
EXTT7=Palmeira e Luizinho
EXTT8=Tonico e Tinoco
EXTT9=Pedro Bento e Zé da Estrada
EXTT10=Cascatinha e Inhana
EXTT11=Carlito e Baduy
EXTT12=Os Filhos de Goiás
EXTT13=Jacó e Jacozinho
EXTT14=Vieira e Vieirinha
EXTT15=Nelson e Jeanette
PLAYORDER=
